<svg width="174" height="22" viewBox="0 0 174 22" fill="none" xmlns="http://www.w3.org/2000/svg">
<path fill-rule="evenodd" clip-rule="evenodd" d="M5.79768 5.33254H7.55726C9.2307 5.33254 10.2403 5.68233 11.1056 6.52663C11.9421 7.37181 12.4323 8.68352 12.4323 10.2278C12.4323 11.5387 12.086 12.7336 11.4518 13.5788C10.7301 14.5403 9.6918 14.9775 8.10536 14.9478H5.79768V5.33254ZM0 0.466094V19.8728H8.48076C11.8263 19.8728 13.8748 19.2026 15.5765 17.5704C17.4226 15.793 18.3165 13.4039 18.3165 10.1404C18.3165 4.16643 14.596 0.466094 8.59604 0.466094H0ZM35.8114 6.35261C35.754 2.33135 32.9273 0.0288576 28.0236 0.0288576C23.3504 0.0288576 20.2349 2.47651 20.2349 6.11956C20.2349 7.66345 20.7543 8.97516 21.6774 9.8199C22.5722 10.6651 23.6962 11.1605 26.9274 12.1219C30.3021 13.1416 30.7928 13.4039 30.7928 14.2491C30.7928 15.3562 30.0137 15.9395 28.4851 15.9395C26.3788 15.9395 25.5141 15.1813 25.3692 13.3169H19.4854C19.5137 17.6578 22.831 20.2808 28.168 20.2808C33.3602 20.2808 36.5905 17.7754 36.5905 13.6956C36.5905 12.0052 35.8984 10.5483 34.6291 9.55756C33.7351 8.85798 32.4367 8.33373 29.985 7.63459L28.5143 7.25551C26.1774 6.61495 25.889 6.41076 25.889 5.65303C25.889 4.74926 26.5811 4.25388 27.8504 4.25388C29.4077 4.25388 30.2447 4.95389 30.2738 6.35261H35.8114ZM49.4008 11.1605L46.776 13.783L48.5064 15.4729C48.1606 15.6474 47.9296 15.7055 47.4972 15.7055C45.3044 15.7055 43.8337 13.4909 43.8337 10.2278C43.8337 6.78985 45.247 4.779 47.6412 4.779C50.0646 4.779 51.4201 6.7024 51.4201 10.1404C51.4201 11.5098 51.3048 12.3257 51.0164 12.8504L49.4008 11.1605ZM57.4205 19.3486L54.9975 16.8419C56.4391 15.4729 57.3334 12.8797 57.3334 10.0529C57.3334 4.25388 53.2949 0 47.7852 0C42.0449 0 37.9207 4.28361 37.9207 10.2571C37.9207 16.3181 41.7283 20.3971 47.382 20.3971C49.3142 20.3971 50.8141 20.018 52.0547 19.2314L54.7952 22L57.4205 19.3486ZM77.1912 0.466094H71.3065V12.3554C71.3065 14.3947 70.4117 15.3562 68.5373 15.3562C66.518 15.3562 65.595 14.3947 65.595 12.3554V0.466094H59.7107V11.8885C59.7107 14.2775 59.9413 15.5311 60.6621 16.7549C62.018 19.0863 64.5566 20.1929 68.422 20.1929C71.4214 20.1929 73.4411 19.6398 74.9409 18.2992C75.8353 17.5122 76.47 16.4926 76.8158 15.298C77.1046 14.3947 77.1912 13.4621 77.1912 11.9471V0.466094ZM89.4678 13.0541H85.6311L86.1792 11.2768L86.6694 9.64457C86.987 8.68352 87.1601 8.01324 87.6499 6.41076L88.0827 8.04253L88.4873 9.61571L88.9475 11.1893L89.4678 13.0541ZM90.5057 0.466094H84.708L77.5831 19.8728H83.5539L84.5349 17.134H90.7075L91.631 19.8728H97.6018L90.5057 0.466094ZM104.704 4.95389H107.617C109.435 4.95389 110.329 5.62374 110.329 6.93501C110.329 8.27558 109.55 8.94543 107.934 8.91613H104.704V4.95389ZM98.8773 0.466094V19.8728H104.732V13.0541H107.214C109.492 13.0541 110.155 13.8412 110.444 16.9591L110.56 18.0657C110.646 19.2026 110.703 19.4063 110.905 19.8728H116.732L116.646 19.7272C116.444 19.436 116.329 18.8528 116.242 17.7754L116.041 15.7348C115.78 13.0541 114.886 11.481 113.242 10.9274C114.973 10.1404 116.069 8.30487 116.069 6.17772C116.069 4.74926 115.637 3.49702 114.742 2.5058C113.444 1.02007 111.8 0.466094 108.684 0.466094H98.8773ZM134.914 0.466094H118.991V19.8728H135.202V15.0357H124.731V12.0052H133.991V7.6923H124.731V5.06976H134.914V0.466094ZM143.888 5.33254H145.647C147.32 5.33254 148.33 5.68233 149.195 6.52663C150.032 7.37181 150.522 8.68352 150.522 10.2278C150.522 11.5387 150.176 12.7336 149.542 13.5788C148.82 14.5403 147.782 14.9775 146.195 14.9478H143.888V5.33254ZM138.089 0.466094V19.8728H146.57C149.916 19.8728 151.965 19.2026 153.666 17.5704C155.513 15.793 156.407 13.4039 156.407 10.1404C156.407 4.16643 152.686 0.466094 146.686 0.466094H138.089ZM174 15.298L169.874 15.3269C168.288 15.3269 167.192 15.385 164.423 15.6185C164.999 15.2692 165.461 15.0357 165.75 14.8608C165.836 14.8319 166.182 14.6278 166.846 14.3068C168.548 13.4621 170.076 12.5295 171.201 11.6559C172.846 10.4023 173.653 8.82912 173.653 6.81827C173.653 3.14679 170.711 0.757294 166.211 0.757294C163.731 0.757294 161.654 1.45731 160.24 2.76815C158.769 4.16643 158.163 5.88608 158.163 8.65423L158.192 8.91613H163.212C163.269 6.46892 164.106 5.41999 166.009 5.41999C167.394 5.41999 168.288 6.14842 168.288 7.28436C168.288 8.36303 167.798 8.91613 165.807 10.1111C164.279 11.0144 163.212 11.6847 162.49 12.1801C161.56 12.8283 160.682 13.5494 159.865 14.3366C158.538 15.7055 157.788 17.5704 157.788 19.5816C157.788 19.6398 157.788 19.7565 157.818 19.8728H174V15.298Z" fill="white"/>
</svg>
